<svg width="450" height="120" viewBox="0 0 450 120" fill="none" xmlns="http://www.w3.org/2000/svg">
  <defs>
    <linearGradient id="bubbleGradLight" x1="0" y1="0" x2="1" y2="1">
      <stop offset="0%" stop-color="#10B981" />
      <stop offset="100%" stop-color="#047857" />
    </linearGradient>
    <filter id="shadowLight" x="-20%" y="-20%" width="140%" height="140%">
      <feDropShadow dx="0" dy="6" stdDeviation="6" flood-color="#047857" flood-opacity="0.15" />
    </filter>
  </defs>

  <g transform="translate(15, 15)">
    <!-- Bulle de fond (Claire) -->
    <path d="M 40 5 C 20.7 5 5 20.7 5 40 C 5 49.7 9 58.5 15.4 64.8 L 11.9 75.4 C 11.4 76.9 12.8 78.3 14.3 77.8 L 24.9 74.3 C 29.5 76.2 34.6 77.3 40 77.3 C 59.3 77.3 75 61.6 75 42.3 C 75 23 59.3 5 40 5 Z" fill="#D1FAE5" transform="translate(16, -6)" />
    <!-- Bulle principale -->
    <path d="M 40 5 C 20.7 5 5 20.7 5 40 C 5 49.7 9 58.5 15.4 64.8 L 11.9 75.4 C 11.4 76.9 12.8 78.3 14.3 77.8 L 24.9 74.3 C 29.5 76.2 34.6 77.3 40 77.3 C 59.3 77.3 75 61.6 75 42.3 C 75 23 59.3 5 40 5 Z" fill="url(#bubbleGradLight)" filter="url(#shadowLight)" />
    <!-- Check -->
    <path d="M 26 42 L 34 50 L 54 30" fill="none" stroke="#FFFFFF" stroke-width="6" stroke-linecap="round" stroke-linejoin="round" />
  </g>

  <g transform="translate(130, 0)">
    <text x="0" y="65" font-family="system-ui, -apple-system, sans-serif" font-size="44">
      <tspan font-weight="800" fill="#0F172A" letter-spacing="-1">Zero</tspan><tspan font-weight="400" fill="#334155" letter-spacing="-0.5">NoShow</tspan>
    </text>
    <text x="3" y="92" font-family="system-ui, -apple-system, sans-serif" font-size="12" font-weight="600" fill="#64748B" letter-spacing="2">LES CLIENTS AU RENDEZ-VOUS</text>
  </g>
</svg>